<mxfile host="Electron" modified="2023-12-01T08:09:15.361Z" agent="Mozilla/5.0 (Macintosh; Intel Mac OS X 10_15_7) AppleWebKit/537.36 (KHTML, like Gecko) draw.io/22.1.2 Chrome/114.0.5735.289 Electron/25.9.4 Safari/537.36" etag="ISEw_TW217_YapuM0Nbq" version="22.1.2" type="device">
  <diagram id="C5RBs43oDa-KdzZeNtuy" name="Page-1">
    <mxGraphModel dx="1242" dy="795" grid="1" gridSize="10" guides="1" tooltips="1" connect="1" arrows="1" fold="1" page="1" pageScale="1" pageWidth="1169" pageHeight="1654" math="0" shadow="0">
      <root>
        <mxCell id="WIyWlLk6GJQsqaUBKTNV-0" />
        <mxCell id="WIyWlLk6GJQsqaUBKTNV-1" parent="WIyWlLk6GJQsqaUBKTNV-0" />
        <mxCell id="zkfFHV4jXpPFQw0GAbJ--0" value="GameManager" style="swimlane;fontStyle=2;align=center;verticalAlign=top;childLayout=stackLayout;horizontal=1;startSize=26;horizontalStack=0;resizeParent=1;resizeLast=0;collapsible=1;marginBottom=0;rounded=0;shadow=0;strokeWidth=1;" parent="WIyWlLk6GJQsqaUBKTNV-1" vertex="1">
          <mxGeometry x="65" y="550" width="450" height="240" as="geometry">
            <mxRectangle x="230" y="140" width="160" height="26" as="alternateBounds" />
          </mxGeometry>
        </mxCell>
        <mxCell id="zkfFHV4jXpPFQw0GAbJ--1" value="+isGameActive: Bool { get }" style="text;align=left;verticalAlign=top;spacingLeft=4;spacingRight=4;overflow=hidden;rotatable=0;points=[[0,0.5],[1,0.5]];portConstraint=eastwest;" parent="zkfFHV4jXpPFQw0GAbJ--0" vertex="1">
          <mxGeometry y="26" width="450" height="26" as="geometry" />
        </mxCell>
        <mxCell id="zkfFHV4jXpPFQw0GAbJ--2" value="-isGameActive: Bool { set }" style="text;align=left;verticalAlign=top;spacingLeft=4;spacingRight=4;overflow=hidden;rotatable=0;points=[[0,0.5],[1,0.5]];portConstraint=eastwest;rounded=0;shadow=0;html=0;" parent="zkfFHV4jXpPFQw0GAbJ--0" vertex="1">
          <mxGeometry y="52" width="450" height="26" as="geometry" />
        </mxCell>
        <mxCell id="s623HBF7WjrTzKDzdVk1-55" value="-user: Player" style="text;align=left;verticalAlign=top;spacingLeft=4;spacingRight=4;overflow=hidden;rotatable=0;points=[[0,0.5],[1,0.5]];portConstraint=eastwest;rounded=0;shadow=0;html=0;" parent="zkfFHV4jXpPFQw0GAbJ--0" vertex="1">
          <mxGeometry y="78" width="450" height="26" as="geometry" />
        </mxCell>
        <mxCell id="s623HBF7WjrTzKDzdVk1-54" value="-computer: Player" style="text;align=left;verticalAlign=top;spacingLeft=4;spacingRight=4;overflow=hidden;rotatable=0;points=[[0,0.5],[1,0.5]];portConstraint=eastwest;rounded=0;shadow=0;html=0;" parent="zkfFHV4jXpPFQw0GAbJ--0" vertex="1">
          <mxGeometry y="104" width="450" height="26" as="geometry" />
        </mxCell>
        <mxCell id="s623HBF7WjrTzKDzdVk1-56" value="-referee: Referee" style="text;align=left;verticalAlign=top;spacingLeft=4;spacingRight=4;overflow=hidden;rotatable=0;points=[[0,0.5],[1,0.5]];portConstraint=eastwest;rounded=0;shadow=0;html=0;" parent="zkfFHV4jXpPFQw0GAbJ--0" vertex="1">
          <mxGeometry y="130" width="450" height="26" as="geometry" />
        </mxCell>
        <mxCell id="zkfFHV4jXpPFQw0GAbJ--4" value="" style="line;html=1;strokeWidth=1;align=left;verticalAlign=middle;spacingTop=-1;spacingLeft=3;spacingRight=3;rotatable=0;labelPosition=right;points=[];portConstraint=eastwest;" parent="zkfFHV4jXpPFQw0GAbJ--0" vertex="1">
          <mxGeometry y="156" width="450" height="8" as="geometry" />
        </mxCell>
        <mxCell id="qmUEVyKpziymvP2P_vaz-50" value="+playGame()" style="text;align=left;verticalAlign=top;spacingLeft=4;spacingRight=4;overflow=hidden;rotatable=0;points=[[0,0.5],[1,0.5]];portConstraint=eastwest;strokeColor=none;" parent="zkfFHV4jXpPFQw0GAbJ--0" vertex="1">
          <mxGeometry y="164" width="450" height="22" as="geometry" />
        </mxCell>
        <mxCell id="mcRJbc7Usewy4EhFzzjJ-1" value="-showOptions()" style="text;align=left;verticalAlign=top;spacingLeft=4;spacingRight=4;overflow=hidden;rotatable=0;points=[[0,0.5],[1,0.5]];portConstraint=eastwest;strokeColor=none;" parent="zkfFHV4jXpPFQw0GAbJ--0" vertex="1">
          <mxGeometry y="186" width="450" height="22" as="geometry" />
        </mxCell>
        <mxCell id="i6mBD4vegmEakO4FTFAI-4" value="-endGame()" style="text;align=left;verticalAlign=top;spacingLeft=4;spacingRight=4;overflow=hidden;rotatable=0;points=[[0,0.5],[1,0.5]];portConstraint=eastwest;strokeColor=none;" parent="zkfFHV4jXpPFQw0GAbJ--0" vertex="1">
          <mxGeometry y="208" width="450" height="22" as="geometry" />
        </mxCell>
        <mxCell id="qmUEVyKpziymvP2P_vaz-57" value="&lt;&lt;enumeration&gt;&gt;&#xa;RockPaperScissors" style="swimlane;fontStyle=0;align=center;verticalAlign=top;childLayout=stackLayout;horizontal=1;startSize=40;horizontalStack=0;resizeParent=1;resizeLast=0;collapsible=1;marginBottom=0;rounded=0;shadow=0;strokeWidth=1;" parent="WIyWlLk6GJQsqaUBKTNV-1" vertex="1">
          <mxGeometry x="807" y="827" width="200" height="238" as="geometry">
            <mxRectangle x="340" y="380" width="170" height="26" as="alternateBounds" />
          </mxGeometry>
        </mxCell>
        <mxCell id="qmUEVyKpziymvP2P_vaz-58" value="~scissors = 1" style="text;align=left;verticalAlign=top;spacingLeft=4;spacingRight=4;overflow=hidden;rotatable=0;points=[[0,0.5],[1,0.5]];portConstraint=eastwest;" parent="qmUEVyKpziymvP2P_vaz-57" vertex="1">
          <mxGeometry y="40" width="200" height="26" as="geometry" />
        </mxCell>
        <mxCell id="qmUEVyKpziymvP2P_vaz-69" value="~rock = 2" style="text;align=left;verticalAlign=top;spacingLeft=4;spacingRight=4;overflow=hidden;rotatable=0;points=[[0,0.5],[1,0.5]];portConstraint=eastwest;" parent="qmUEVyKpziymvP2P_vaz-57" vertex="1">
          <mxGeometry y="66" width="200" height="26" as="geometry" />
        </mxCell>
        <mxCell id="qmUEVyKpziymvP2P_vaz-70" value="~paper = 3" style="text;align=left;verticalAlign=top;spacingLeft=4;spacingRight=4;overflow=hidden;rotatable=0;points=[[0,0.5],[1,0.5]];portConstraint=eastwest;" parent="qmUEVyKpziymvP2P_vaz-57" vertex="1">
          <mxGeometry y="92" width="200" height="26" as="geometry" />
        </mxCell>
        <mxCell id="qmUEVyKpziymvP2P_vaz-59" value="" style="line;html=1;strokeWidth=1;align=left;verticalAlign=middle;spacingTop=-1;spacingLeft=3;spacingRight=3;rotatable=0;labelPosition=right;points=[];portConstraint=eastwest;" parent="qmUEVyKpziymvP2P_vaz-57" vertex="1">
          <mxGeometry y="118" width="200" height="8" as="geometry" />
        </mxCell>
        <mxCell id="s623HBF7WjrTzKDzdVk1-36" value="~value: Int" style="text;align=left;verticalAlign=top;spacingLeft=4;spacingRight=4;overflow=hidden;rotatable=0;points=[[0,0.5],[1,0.5]];portConstraint=eastwest;" parent="qmUEVyKpziymvP2P_vaz-57" vertex="1">
          <mxGeometry y="126" width="200" height="26" as="geometry" />
        </mxCell>
        <mxCell id="s623HBF7WjrTzKDzdVk1-40" value="~count: Int" style="text;align=left;verticalAlign=top;spacingLeft=4;spacingRight=4;overflow=hidden;rotatable=0;points=[[0,0.5],[1,0.5]];portConstraint=eastwest;fontStyle=4" parent="qmUEVyKpziymvP2P_vaz-57" vertex="1">
          <mxGeometry y="152" width="200" height="26" as="geometry" />
        </mxCell>
        <mxCell id="s623HBF7WjrTzKDzdVk1-39" value="" style="line;html=1;strokeWidth=1;align=left;verticalAlign=middle;spacingTop=-1;spacingLeft=3;spacingRight=3;rotatable=0;labelPosition=right;points=[];portConstraint=eastwest;" parent="qmUEVyKpziymvP2P_vaz-57" vertex="1">
          <mxGeometry y="178" width="200" height="8" as="geometry" />
        </mxCell>
        <mxCell id="s623HBF7WjrTzKDzdVk1-38" value="~random() -&gt; RockPaperScissors?" style="text;align=left;verticalAlign=top;spacingLeft=4;spacingRight=4;overflow=hidden;rotatable=0;points=[[0,0.5],[1,0.5]];portConstraint=eastwest;fontStyle=4" parent="qmUEVyKpziymvP2P_vaz-57" vertex="1">
          <mxGeometry y="186" width="200" height="26" as="geometry" />
        </mxCell>
        <mxCell id="s623HBF7WjrTzKDzdVk1-37" value="~init?(choiceValue: Int)" style="text;align=left;verticalAlign=top;spacingLeft=4;spacingRight=4;overflow=hidden;rotatable=0;points=[[0,0.5],[1,0.5]];portConstraint=eastwest;" parent="qmUEVyKpziymvP2P_vaz-57" vertex="1">
          <mxGeometry y="212" width="200" height="26" as="geometry" />
        </mxCell>
        <mxCell id="qmUEVyKpziymvP2P_vaz-72" value="&lt;&lt;enumeration&gt;&gt;&#xa;Message" style="swimlane;fontStyle=0;align=center;verticalAlign=top;childLayout=stackLayout;horizontal=1;startSize=40;horizontalStack=0;resizeParent=1;resizeLast=0;collapsible=1;marginBottom=0;rounded=0;shadow=0;strokeWidth=1;" parent="WIyWlLk6GJQsqaUBKTNV-1" vertex="1">
          <mxGeometry x="975" y="468" width="160" height="240" as="geometry">
            <mxRectangle x="340" y="380" width="170" height="26" as="alternateBounds" />
          </mxGeometry>
        </mxCell>
        <mxCell id="qmUEVyKpziymvP2P_vaz-73" value="~rpsOptions" style="text;align=left;verticalAlign=top;spacingLeft=4;spacingRight=4;overflow=hidden;rotatable=0;points=[[0,0.5],[1,0.5]];portConstraint=eastwest;" parent="qmUEVyKpziymvP2P_vaz-72" vertex="1">
          <mxGeometry y="40" width="160" height="26" as="geometry" />
        </mxCell>
        <mxCell id="mcRJbc7Usewy4EhFzzjJ-30" value="~mjpOptions(PlayerTurn)" style="text;align=left;verticalAlign=top;spacingLeft=4;spacingRight=4;overflow=hidden;rotatable=0;points=[[0,0.5],[1,0.5]];portConstraint=eastwest;" parent="qmUEVyKpziymvP2P_vaz-72" vertex="1">
          <mxGeometry y="66" width="160" height="26" as="geometry" />
        </mxCell>
        <mxCell id="mcRJbc7Usewy4EhFzzjJ-31" value="~playerTurn(PlayerTurn)" style="text;align=left;verticalAlign=top;spacingLeft=4;spacingRight=4;overflow=hidden;rotatable=0;points=[[0,0.5],[1,0.5]];portConstraint=eastwest;" parent="qmUEVyKpziymvP2P_vaz-72" vertex="1">
          <mxGeometry y="92" width="160" height="26" as="geometry" />
        </mxCell>
        <mxCell id="mcRJbc7Usewy4EhFzzjJ-32" value="~winner(PlayerTurn)" style="text;align=left;verticalAlign=top;spacingLeft=4;spacingRight=4;overflow=hidden;rotatable=0;points=[[0,0.5],[1,0.5]];portConstraint=eastwest;" parent="qmUEVyKpziymvP2P_vaz-72" vertex="1">
          <mxGeometry y="118" width="160" height="26" as="geometry" />
        </mxCell>
        <mxCell id="qmUEVyKpziymvP2P_vaz-75" value="~invalidOption" style="text;align=left;verticalAlign=top;spacingLeft=4;spacingRight=4;overflow=hidden;rotatable=0;points=[[0,0.5],[1,0.5]];portConstraint=eastwest;" parent="qmUEVyKpziymvP2P_vaz-72" vertex="1">
          <mxGeometry y="144" width="160" height="26" as="geometry" />
        </mxCell>
        <mxCell id="qmUEVyKpziymvP2P_vaz-74" value="~gameOver" style="text;align=left;verticalAlign=top;spacingLeft=4;spacingRight=4;overflow=hidden;rotatable=0;points=[[0,0.5],[1,0.5]];portConstraint=eastwest;" parent="qmUEVyKpziymvP2P_vaz-72" vertex="1">
          <mxGeometry y="170" width="160" height="26" as="geometry" />
        </mxCell>
        <mxCell id="qmUEVyKpziymvP2P_vaz-76" value="" style="line;html=1;strokeWidth=1;align=left;verticalAlign=middle;spacingTop=-1;spacingLeft=3;spacingRight=3;rotatable=0;labelPosition=right;points=[];portConstraint=eastwest;" parent="qmUEVyKpziymvP2P_vaz-72" vertex="1">
          <mxGeometry y="196" width="160" height="8" as="geometry" />
        </mxCell>
        <mxCell id="qmUEVyKpziymvP2P_vaz-78" value="~description: String" style="text;align=left;verticalAlign=top;spacingLeft=4;spacingRight=4;overflow=hidden;rotatable=0;points=[[0,0.5],[1,0.5]];portConstraint=eastwest;" parent="qmUEVyKpziymvP2P_vaz-72" vertex="1">
          <mxGeometry y="204" width="160" height="20" as="geometry" />
        </mxCell>
        <mxCell id="-9zZKkEwCmD_-viZf4k5-0" value="" style="edgeStyle=elbowEdgeStyle;elbow=horizontal;endArrow=open;html=1;curved=0;rounded=0;endSize=8;startSize=8;endFill=0;entryX=-0.004;entryY=0.054;entryDx=0;entryDy=0;entryPerimeter=0;exitX=0.999;exitY=0.04;exitDx=0;exitDy=0;exitPerimeter=0;" parent="WIyWlLk6GJQsqaUBKTNV-1" source="zkfFHV4jXpPFQw0GAbJ--0" target="s623HBF7WjrTzKDzdVk1-62" edge="1">
          <mxGeometry width="50" height="50" relative="1" as="geometry">
            <mxPoint x="499" y="560" as="sourcePoint" />
            <mxPoint x="559" y="614.16" as="targetPoint" />
            <Array as="points">
              <mxPoint x="540" y="510" />
            </Array>
          </mxGeometry>
        </mxCell>
        <mxCell id="s623HBF7WjrTzKDzdVk1-1" value="Referee" style="swimlane;fontStyle=0;align=center;verticalAlign=top;childLayout=stackLayout;horizontal=1;startSize=26;horizontalStack=0;resizeParent=1;resizeLast=0;collapsible=1;marginBottom=0;rounded=0;shadow=0;strokeWidth=1;" parent="WIyWlLk6GJQsqaUBKTNV-1" vertex="1">
          <mxGeometry x="99" y="820" width="416" height="520" as="geometry">
            <mxRectangle x="560" y="360" width="160" height="26" as="alternateBounds" />
          </mxGeometry>
        </mxCell>
        <mxCell id="mcRJbc7Usewy4EhFzzjJ-9" value="~isGameOver: Bool { get }" style="text;align=left;verticalAlign=top;spacingLeft=4;spacingRight=4;overflow=hidden;rotatable=0;points=[[0,0.5],[1,0.5]];portConstraint=eastwest;" parent="s623HBF7WjrTzKDzdVk1-1" vertex="1">
          <mxGeometry y="26" width="416" height="26" as="geometry" />
        </mxCell>
        <mxCell id="mcRJbc7Usewy4EhFzzjJ-11" value="-isGameOver: Bool { set }" style="text;align=left;verticalAlign=top;spacingLeft=4;spacingRight=4;overflow=hidden;rotatable=0;points=[[0,0.5],[1,0.5]];portConstraint=eastwest;" parent="s623HBF7WjrTzKDzdVk1-1" vertex="1">
          <mxGeometry y="52" width="416" height="26" as="geometry" />
        </mxCell>
        <mxCell id="mcRJbc7Usewy4EhFzzjJ-52" value="" style="edgeStyle=elbowEdgeStyle;elbow=horizontal;endArrow=open;html=1;curved=0;rounded=0;endSize=8;startSize=8;entryX=0;entryY=0.25;entryDx=0;entryDy=0;endFill=0;" parent="s623HBF7WjrTzKDzdVk1-1" target="mcRJbc7Usewy4EhFzzjJ-44" edge="1">
          <mxGeometry width="50" height="50" relative="1" as="geometry">
            <mxPoint x="136" y="90" as="sourcePoint" />
            <mxPoint x="176" y="40" as="targetPoint" />
            <Array as="points">
              <mxPoint x="366" y="140" />
            </Array>
          </mxGeometry>
        </mxCell>
        <mxCell id="mcRJbc7Usewy4EhFzzjJ-35" value="~game: Game { get }" style="text;align=left;verticalAlign=top;spacingLeft=4;spacingRight=4;overflow=hidden;rotatable=0;points=[[0,0.5],[1,0.5]];portConstraint=eastwest;" parent="s623HBF7WjrTzKDzdVk1-1" vertex="1">
          <mxGeometry y="78" width="416" height="26" as="geometry" />
        </mxCell>
        <mxCell id="mcRJbc7Usewy4EhFzzjJ-36" value="-game: Game { set }" style="text;align=left;verticalAlign=top;spacingLeft=4;spacingRight=4;overflow=hidden;rotatable=0;points=[[0,0.5],[1,0.5]];portConstraint=eastwest;" parent="s623HBF7WjrTzKDzdVk1-1" vertex="1">
          <mxGeometry y="104" width="416" height="26" as="geometry" />
        </mxCell>
        <mxCell id="mcRJbc7Usewy4EhFzzjJ-15" value="~currentTurn: PlayerTurn { get }" style="text;align=left;verticalAlign=top;spacingLeft=4;spacingRight=4;overflow=hidden;rotatable=0;points=[[0,0.5],[1,0.5]];portConstraint=eastwest;" parent="s623HBF7WjrTzKDzdVk1-1" vertex="1">
          <mxGeometry y="130" width="416" height="26" as="geometry" />
        </mxCell>
        <mxCell id="mcRJbc7Usewy4EhFzzjJ-37" value="-currentTurn: PlayerTurn { set }" style="text;align=left;verticalAlign=top;spacingLeft=4;spacingRight=4;overflow=hidden;rotatable=0;points=[[0,0.5],[1,0.5]];portConstraint=eastwest;" parent="s623HBF7WjrTzKDzdVk1-1" vertex="1">
          <mxGeometry y="156" width="416" height="26" as="geometry" />
        </mxCell>
        <mxCell id="mcRJbc7Usewy4EhFzzjJ-33" value="-nextTurn: PlayerTurn" style="text;align=left;verticalAlign=top;spacingLeft=4;spacingRight=4;overflow=hidden;rotatable=0;points=[[0,0.5],[1,0.5]];portConstraint=eastwest;" parent="s623HBF7WjrTzKDzdVk1-1" vertex="1">
          <mxGeometry y="182" width="416" height="26" as="geometry" />
        </mxCell>
        <mxCell id="mcRJbc7Usewy4EhFzzjJ-12" value="" style="line;html=1;strokeWidth=1;align=left;verticalAlign=middle;spacingTop=-1;spacingLeft=3;spacingRight=3;rotatable=0;labelPosition=right;points=[];portConstraint=eastwest;" parent="s623HBF7WjrTzKDzdVk1-1" vertex="1">
          <mxGeometry y="208" width="416" height="8" as="geometry" />
        </mxCell>
        <mxCell id="mcRJbc7Usewy4EhFzzjJ-14" value="-isDraw: Bool &#xa;" style="text;align=left;verticalAlign=top;spacingLeft=4;spacingRight=4;overflow=hidden;rotatable=0;points=[[0,0.5],[1,0.5]];portConstraint=eastwest;" parent="s623HBF7WjrTzKDzdVk1-1" vertex="1">
          <mxGeometry y="216" width="416" height="26" as="geometry" />
        </mxCell>
        <mxCell id="mcRJbc7Usewy4EhFzzjJ-34" value="-isPlayerTurn: Bool" style="text;align=left;verticalAlign=top;spacingLeft=4;spacingRight=4;overflow=hidden;rotatable=0;points=[[0,0.5],[1,0.5]];portConstraint=eastwest;" parent="s623HBF7WjrTzKDzdVk1-1" vertex="1">
          <mxGeometry y="242" width="416" height="26" as="geometry" />
        </mxCell>
        <mxCell id="mcRJbc7Usewy4EhFzzjJ-8" value="" style="line;html=1;strokeWidth=1;align=left;verticalAlign=middle;spacingTop=-1;spacingLeft=3;spacingRight=3;rotatable=0;labelPosition=right;points=[];portConstraint=eastwest;" parent="s623HBF7WjrTzKDzdVk1-1" vertex="1">
          <mxGeometry y="268" width="416" height="8" as="geometry" />
        </mxCell>
        <mxCell id="s623HBF7WjrTzKDzdVk1-4" value="~determineGameOutcome(between userChoice: RockPaperScissors,&#xa;   and computerChoice: RockPaperScissors) " style="text;align=left;verticalAlign=top;spacingLeft=4;spacingRight=4;overflow=hidden;rotatable=0;points=[[0,0.5],[1,0.5]];portConstraint=eastwest;" parent="s623HBF7WjrTzKDzdVk1-1" vertex="1">
          <mxGeometry y="276" width="416" height="36" as="geometry" />
        </mxCell>
        <mxCell id="mcRJbc7Usewy4EhFzzjJ-17" value="-handleInvalidOrExitBy(_ userOption: Option, _computerOption: Option)" style="text;align=left;verticalAlign=top;spacingLeft=4;spacingRight=4;overflow=hidden;rotatable=0;points=[[0,0.5],[1,0.5]];portConstraint=eastwest;" parent="s623HBF7WjrTzKDzdVk1-1" vertex="1">
          <mxGeometry y="312" width="416" height="26" as="geometry" />
        </mxCell>
        <mxCell id="mcRJbc7Usewy4EhFzzjJ-18" value="-handleInvalidOption()" style="text;align=left;verticalAlign=top;spacingLeft=4;spacingRight=4;overflow=hidden;rotatable=0;points=[[0,0.5],[1,0.5]];portConstraint=eastwest;" parent="s623HBF7WjrTzKDzdVk1-1" vertex="1">
          <mxGeometry y="338" width="416" height="26" as="geometry" />
        </mxCell>
        <mxCell id="mcRJbc7Usewy4EhFzzjJ-19" value="-shouldEndGameEarlyBy(_ userOption: Option, _computerOption: Option)" style="text;align=left;verticalAlign=top;spacingLeft=4;spacingRight=4;overflow=hidden;rotatable=0;points=[[0,0.5],[1,0.5]];portConstraint=eastwest;" parent="s623HBF7WjrTzKDzdVk1-1" vertex="1">
          <mxGeometry y="364" width="416" height="26" as="geometry" />
        </mxCell>
        <mxCell id="mcRJbc7Usewy4EhFzzjJ-20" value="-processPlayerChoices(_ userChoice: RockPaperScissors,&#xa;  _ computerChoice: RockPaperScissors)" style="text;align=left;verticalAlign=top;spacingLeft=4;spacingRight=4;overflow=hidden;rotatable=0;points=[[0,0.5],[1,0.5]];portConstraint=eastwest;" parent="s623HBF7WjrTzKDzdVk1-1" vertex="1">
          <mxGeometry y="390" width="416" height="36" as="geometry" />
        </mxCell>
        <mxCell id="mcRJbc7Usewy4EhFzzjJ-21" value="-getRPSOutcome(between userChoice: RockPaperScissors,&#xa;  _ computerChoice: RockPaperScissors) -&gt; RPSOutcome" style="text;align=left;verticalAlign=top;spacingLeft=4;spacingRight=4;overflow=hidden;rotatable=0;points=[[0,0.5],[1,0.5]];portConstraint=eastwest;" parent="s623HBF7WjrTzKDzdVk1-1" vertex="1">
          <mxGeometry y="426" width="416" height="36" as="geometry" />
        </mxCell>
        <mxCell id="mcRJbc7Usewy4EhFzzjJ-23" value="-determineMJPOutcome() " style="text;align=left;verticalAlign=top;spacingLeft=4;spacingRight=4;overflow=hidden;rotatable=0;points=[[0,0.5],[1,0.5]];portConstraint=eastwest;" parent="s623HBF7WjrTzKDzdVk1-1" vertex="1">
          <mxGeometry y="462" width="416" height="26" as="geometry" />
        </mxCell>
        <mxCell id="mcRJbc7Usewy4EhFzzjJ-24" value="-getPlayerTurn()" style="text;align=left;verticalAlign=top;spacingLeft=4;spacingRight=4;overflow=hidden;rotatable=0;points=[[0,0.5],[1,0.5]];portConstraint=eastwest;" parent="s623HBF7WjrTzKDzdVk1-1" vertex="1">
          <mxGeometry y="488" width="416" height="26" as="geometry" />
        </mxCell>
        <mxCell id="s623HBF7WjrTzKDzdVk1-10" value="&lt;&lt;protocol&gt;&gt;&#xa;Player" style="swimlane;fontStyle=0;align=center;verticalAlign=top;childLayout=stackLayout;horizontal=1;startSize=40;horizontalStack=0;resizeParent=1;resizeLast=0;collapsible=1;marginBottom=0;rounded=0;shadow=0;strokeWidth=1;" parent="WIyWlLk6GJQsqaUBKTNV-1" vertex="1">
          <mxGeometry x="175" y="180.37" width="160" height="74" as="geometry">
            <mxRectangle x="340" y="380" width="170" height="26" as="alternateBounds" />
          </mxGeometry>
        </mxCell>
        <mxCell id="s623HBF7WjrTzKDzdVk1-14" value="" style="line;html=1;strokeWidth=1;align=left;verticalAlign=middle;spacingTop=-1;spacingLeft=3;spacingRight=3;rotatable=0;labelPosition=right;points=[];portConstraint=eastwest;" parent="s623HBF7WjrTzKDzdVk1-10" vertex="1">
          <mxGeometry y="40" width="160" height="8" as="geometry" />
        </mxCell>
        <mxCell id="s623HBF7WjrTzKDzdVk1-27" value="~chooseOption() -&gt; Option" style="text;align=left;verticalAlign=top;spacingLeft=4;spacingRight=4;overflow=hidden;rotatable=0;points=[[0,0.5],[1,0.5]];portConstraint=eastwest;" parent="s623HBF7WjrTzKDzdVk1-10" vertex="1">
          <mxGeometry y="48" width="160" height="26" as="geometry" />
        </mxCell>
        <mxCell id="s623HBF7WjrTzKDzdVk1-30" value="Computer" style="swimlane;fontStyle=0;align=center;verticalAlign=top;childLayout=stackLayout;horizontal=1;startSize=26;horizontalStack=0;resizeParent=1;resizeLast=0;collapsible=1;marginBottom=0;rounded=0;shadow=0;strokeWidth=1;" parent="WIyWlLk6GJQsqaUBKTNV-1" vertex="1">
          <mxGeometry x="85" y="340.37" width="156" height="60" as="geometry">
            <mxRectangle x="560" y="360" width="160" height="26" as="alternateBounds" />
          </mxGeometry>
        </mxCell>
        <mxCell id="s623HBF7WjrTzKDzdVk1-33" value="" style="line;html=1;strokeWidth=1;align=left;verticalAlign=middle;spacingTop=-1;spacingLeft=3;spacingRight=3;rotatable=0;labelPosition=right;points=[];portConstraint=eastwest;" parent="s623HBF7WjrTzKDzdVk1-30" vertex="1">
          <mxGeometry y="26" width="156" height="8" as="geometry" />
        </mxCell>
        <mxCell id="s623HBF7WjrTzKDzdVk1-34" value="~chooseOption() -&gt; Option" style="text;align=left;verticalAlign=top;spacingLeft=4;spacingRight=4;overflow=hidden;rotatable=0;points=[[0,0.5],[1,0.5]];portConstraint=eastwest;" parent="s623HBF7WjrTzKDzdVk1-30" vertex="1">
          <mxGeometry y="34" width="156" height="26" as="geometry" />
        </mxCell>
        <mxCell id="s623HBF7WjrTzKDzdVk1-41" value="&lt;&lt;enumeration&gt;&gt;&#xa;Option" style="swimlane;fontStyle=0;align=center;verticalAlign=top;childLayout=stackLayout;horizontal=1;startSize=40;horizontalStack=0;resizeParent=1;resizeLast=0;collapsible=1;marginBottom=0;rounded=0;shadow=0;strokeWidth=1;" parent="WIyWlLk6GJQsqaUBKTNV-1" vertex="1">
          <mxGeometry x="439" y="80" width="301" height="210" as="geometry">
            <mxRectangle x="340" y="380" width="170" height="26" as="alternateBounds" />
          </mxGeometry>
        </mxCell>
        <mxCell id="s623HBF7WjrTzKDzdVk1-45" value="" style="line;html=1;strokeWidth=1;align=left;verticalAlign=middle;spacingTop=-1;spacingLeft=3;spacingRight=3;rotatable=0;labelPosition=right;points=[];portConstraint=eastwest;" parent="s623HBF7WjrTzKDzdVk1-41" vertex="1">
          <mxGeometry y="40" width="301" height="8" as="geometry" />
        </mxCell>
        <mxCell id="s623HBF7WjrTzKDzdVk1-44" value="~invalid" style="text;align=left;verticalAlign=top;spacingLeft=4;spacingRight=4;overflow=hidden;rotatable=0;points=[[0,0.5],[1,0.5]];portConstraint=eastwest;" parent="s623HBF7WjrTzKDzdVk1-41" vertex="1">
          <mxGeometry y="48" width="301" height="26" as="geometry" />
        </mxCell>
        <mxCell id="s623HBF7WjrTzKDzdVk1-43" value="~exit" style="text;align=left;verticalAlign=top;spacingLeft=4;spacingRight=4;overflow=hidden;rotatable=0;points=[[0,0.5],[1,0.5]];portConstraint=eastwest;" parent="s623HBF7WjrTzKDzdVk1-41" vertex="1">
          <mxGeometry y="74" width="301" height="26" as="geometry" />
        </mxCell>
        <mxCell id="s623HBF7WjrTzKDzdVk1-42" value="~valid(RockPaperScissors)" style="text;align=left;verticalAlign=top;spacingLeft=4;spacingRight=4;overflow=hidden;rotatable=0;points=[[0,0.5],[1,0.5]];portConstraint=eastwest;" parent="s623HBF7WjrTzKDzdVk1-41" vertex="1">
          <mxGeometry y="100" width="301" height="26" as="geometry" />
        </mxCell>
        <mxCell id="mcRJbc7Usewy4EhFzzjJ-54" value="" style="line;html=1;strokeWidth=1;align=left;verticalAlign=middle;spacingTop=-1;spacingLeft=3;spacingRight=3;rotatable=0;labelPosition=right;points=[];portConstraint=eastwest;" parent="s623HBF7WjrTzKDzdVk1-41" vertex="1">
          <mxGeometry y="126" width="301" height="8" as="geometry" />
        </mxCell>
        <mxCell id="mcRJbc7Usewy4EhFzzjJ-55" value="~getRockPaperScissors(from option: Option, &#xa; baseOn game: Game) -&gt; RockPaperScissors?" style="text;align=left;verticalAlign=top;spacingLeft=4;spacingRight=4;overflow=hidden;rotatable=0;points=[[0,0.5],[1,0.5]];portConstraint=eastwest;fontStyle=4" parent="s623HBF7WjrTzKDzdVk1-41" vertex="1">
          <mxGeometry y="134" width="301" height="36" as="geometry" />
        </mxCell>
        <mxCell id="mcRJbc7Usewy4EhFzzjJ-59" value="- mapToMJP(rsp choice: RockPaperScissors) &#xa; -&gt; RockPaperScissors" style="text;align=left;verticalAlign=top;spacingLeft=4;spacingRight=4;overflow=hidden;rotatable=0;points=[[0,0.5],[1,0.5]];portConstraint=eastwest;fontStyle=4" parent="s623HBF7WjrTzKDzdVk1-41" vertex="1">
          <mxGeometry y="170" width="301" height="40" as="geometry" />
        </mxCell>
        <mxCell id="s623HBF7WjrTzKDzdVk1-49" value="User" style="swimlane;fontStyle=0;align=center;verticalAlign=top;childLayout=stackLayout;horizontal=1;startSize=26;horizontalStack=0;resizeParent=1;resizeLast=0;collapsible=1;marginBottom=0;rounded=0;shadow=0;strokeWidth=1;" parent="WIyWlLk6GJQsqaUBKTNV-1" vertex="1">
          <mxGeometry x="295" y="340.37" width="156" height="60" as="geometry">
            <mxRectangle x="560" y="360" width="160" height="26" as="alternateBounds" />
          </mxGeometry>
        </mxCell>
        <mxCell id="s623HBF7WjrTzKDzdVk1-52" value="" style="line;html=1;strokeWidth=1;align=left;verticalAlign=middle;spacingTop=-1;spacingLeft=3;spacingRight=3;rotatable=0;labelPosition=right;points=[];portConstraint=eastwest;" parent="s623HBF7WjrTzKDzdVk1-49" vertex="1">
          <mxGeometry y="26" width="156" height="8" as="geometry" />
        </mxCell>
        <mxCell id="s623HBF7WjrTzKDzdVk1-53" value="~chooseOption() -&gt; Option" style="text;align=left;verticalAlign=top;spacingLeft=4;spacingRight=4;overflow=hidden;rotatable=0;points=[[0,0.5],[1,0.5]];portConstraint=eastwest;" parent="s623HBF7WjrTzKDzdVk1-49" vertex="1">
          <mxGeometry y="34" width="156" height="26" as="geometry" />
        </mxCell>
        <mxCell id="s623HBF7WjrTzKDzdVk1-57" value="&lt;&lt;enumeration&gt;&gt;&#xa;InputHandler" style="swimlane;fontStyle=0;align=center;verticalAlign=middle;childLayout=stackLayout;horizontal=1;startSize=40;horizontalStack=0;resizeParent=1;resizeLast=0;collapsible=1;marginBottom=0;rounded=0;shadow=0;strokeWidth=1;" parent="WIyWlLk6GJQsqaUBKTNV-1" vertex="1">
          <mxGeometry x="505" y="310.37" width="150" height="108" as="geometry">
            <mxRectangle x="560" y="360" width="160" height="26" as="alternateBounds" />
          </mxGeometry>
        </mxCell>
        <mxCell id="s623HBF7WjrTzKDzdVk1-60" value="" style="line;html=1;strokeWidth=1;align=left;verticalAlign=middle;spacingTop=-1;spacingLeft=3;spacingRight=3;rotatable=0;labelPosition=right;points=[];portConstraint=eastwest;" parent="s623HBF7WjrTzKDzdVk1-57" vertex="1">
          <mxGeometry y="40" width="150" height="8" as="geometry" />
        </mxCell>
        <mxCell id="s623HBF7WjrTzKDzdVk1-58" value="-exit: String" style="text;align=left;verticalAlign=top;spacingLeft=4;spacingRight=4;overflow=hidden;rotatable=0;points=[[0,0.5],[1,0.5]];portConstraint=eastwest;fontStyle=4" parent="s623HBF7WjrTzKDzdVk1-57" vertex="1">
          <mxGeometry y="48" width="150" height="26" as="geometry" />
        </mxCell>
        <mxCell id="LJuodU2vaYXhB72UAbHL-2" value="" style="line;html=1;strokeWidth=1;align=left;verticalAlign=middle;spacingTop=-1;spacingLeft=3;spacingRight=3;rotatable=0;labelPosition=right;points=[];portConstraint=eastwest;" parent="s623HBF7WjrTzKDzdVk1-57" vertex="1">
          <mxGeometry y="74" width="150" height="8" as="geometry" />
        </mxCell>
        <mxCell id="s623HBF7WjrTzKDzdVk1-61" value="~receiveInput() -&gt; Option" style="text;align=left;verticalAlign=top;spacingLeft=4;spacingRight=4;overflow=hidden;rotatable=0;points=[[0,0.5],[1,0.5]];portConstraint=eastwest;fontStyle=4" parent="s623HBF7WjrTzKDzdVk1-57" vertex="1">
          <mxGeometry y="82" width="150" height="26" as="geometry" />
        </mxCell>
        <mxCell id="s623HBF7WjrTzKDzdVk1-62" value="&lt;&lt;enumeration&gt;&gt;&#xa;PrintingHandler" style="swimlane;fontStyle=0;align=center;verticalAlign=top;childLayout=stackLayout;horizontal=1;startSize=40;horizontalStack=0;resizeParent=1;resizeLast=0;collapsible=1;marginBottom=0;rounded=0;shadow=0;strokeWidth=1;" parent="WIyWlLk6GJQsqaUBKTNV-1" vertex="1">
          <mxGeometry x="625" y="468" width="290" height="270" as="geometry">
            <mxRectangle x="340" y="380" width="170" height="26" as="alternateBounds" />
          </mxGeometry>
        </mxCell>
        <mxCell id="s623HBF7WjrTzKDzdVk1-66" value="" style="line;html=1;strokeWidth=1;align=left;verticalAlign=middle;spacingTop=-1;spacingLeft=3;spacingRight=3;rotatable=0;labelPosition=right;points=[];portConstraint=eastwest;" parent="s623HBF7WjrTzKDzdVk1-62" vertex="1">
          <mxGeometry y="40" width="290" height="8" as="geometry" />
        </mxCell>
        <mxCell id="s623HBF7WjrTzKDzdVk1-63" value="-Message: CustomStringConvertible" style="text;align=left;verticalAlign=top;spacingLeft=4;spacingRight=4;overflow=hidden;rotatable=0;points=[[0,0.5],[1,0.5]];portConstraint=eastwest;" parent="s623HBF7WjrTzKDzdVk1-62" vertex="1">
          <mxGeometry y="48" width="290" height="26" as="geometry" />
        </mxCell>
        <mxCell id="mDiNn8X6zUOTqSWpwGkp-0" value="" style="line;html=1;strokeWidth=1;align=left;verticalAlign=middle;spacingTop=-1;spacingLeft=3;spacingRight=3;rotatable=0;labelPosition=right;points=[];portConstraint=eastwest;" parent="s623HBF7WjrTzKDzdVk1-62" vertex="1">
          <mxGeometry y="74" width="290" height="8" as="geometry" />
        </mxCell>
        <mxCell id="s623HBF7WjrTzKDzdVk1-65" value="~showRPSOptions()" style="text;align=left;verticalAlign=top;spacingLeft=4;spacingRight=4;overflow=hidden;rotatable=0;points=[[0,0.5],[1,0.5]];portConstraint=eastwest;fontStyle=4" parent="s623HBF7WjrTzKDzdVk1-62" vertex="1">
          <mxGeometry y="82" width="290" height="26" as="geometry" />
        </mxCell>
        <mxCell id="mcRJbc7Usewy4EhFzzjJ-26" value="~showMJPOptions()" style="text;align=left;verticalAlign=top;spacingLeft=4;spacingRight=4;overflow=hidden;rotatable=0;points=[[0,0.5],[1,0.5]];portConstraint=eastwest;fontStyle=4" parent="s623HBF7WjrTzKDzdVk1-62" vertex="1">
          <mxGeometry y="108" width="290" height="26" as="geometry" />
        </mxCell>
        <mxCell id="s623HBF7WjrTzKDzdVk1-64" value="~notifyRPSOutcome()" style="text;align=left;verticalAlign=top;spacingLeft=4;spacingRight=4;overflow=hidden;rotatable=0;points=[[0,0.5],[1,0.5]];portConstraint=eastwest;fontStyle=4" parent="s623HBF7WjrTzKDzdVk1-62" vertex="1">
          <mxGeometry y="134" width="290" height="26" as="geometry" />
        </mxCell>
        <mxCell id="mDiNn8X6zUOTqSWpwGkp-1" value="~notifyMJPTurn()" style="text;align=left;verticalAlign=top;spacingLeft=4;spacingRight=4;overflow=hidden;rotatable=0;points=[[0,0.5],[1,0.5]];portConstraint=eastwest;fontStyle=4" parent="s623HBF7WjrTzKDzdVk1-62" vertex="1">
          <mxGeometry y="160" width="290" height="26" as="geometry" />
        </mxCell>
        <mxCell id="mDiNn8X6zUOTqSWpwGkp-2" value="~notifyMJPWinner()" style="text;align=left;verticalAlign=top;spacingLeft=4;spacingRight=4;overflow=hidden;rotatable=0;points=[[0,0.5],[1,0.5]];portConstraint=eastwest;fontStyle=4" parent="s623HBF7WjrTzKDzdVk1-62" vertex="1">
          <mxGeometry y="186" width="290" height="26" as="geometry" />
        </mxCell>
        <mxCell id="mcRJbc7Usewy4EhFzzjJ-27" value="~notifyInvalidOption()" style="text;align=left;verticalAlign=top;spacingLeft=4;spacingRight=4;overflow=hidden;rotatable=0;points=[[0,0.5],[1,0.5]];portConstraint=eastwest;fontStyle=4" parent="s623HBF7WjrTzKDzdVk1-62" vertex="1">
          <mxGeometry y="212" width="290" height="26" as="geometry" />
        </mxCell>
        <mxCell id="mcRJbc7Usewy4EhFzzjJ-28" value="~notifyExitByPlayer()" style="text;align=left;verticalAlign=top;spacingLeft=4;spacingRight=4;overflow=hidden;rotatable=0;points=[[0,0.5],[1,0.5]];portConstraint=eastwest;fontStyle=4" parent="s623HBF7WjrTzKDzdVk1-62" vertex="1">
          <mxGeometry y="238" width="290" height="26" as="geometry" />
        </mxCell>
        <mxCell id="mDiNn8X6zUOTqSWpwGkp-3" value="" style="endArrow=block;dashed=1;endFill=0;endSize=12;html=1;rounded=0;entryX=0.5;entryY=1;entryDx=0;entryDy=0;entryPerimeter=0;exitX=0.5;exitY=0;exitDx=0;exitDy=0;" parent="WIyWlLk6GJQsqaUBKTNV-1" source="s623HBF7WjrTzKDzdVk1-30" target="s623HBF7WjrTzKDzdVk1-27" edge="1">
          <mxGeometry width="160" relative="1" as="geometry">
            <mxPoint x="69" y="310.37" as="sourcePoint" />
            <mxPoint x="229" y="310.37" as="targetPoint" />
          </mxGeometry>
        </mxCell>
        <mxCell id="mDiNn8X6zUOTqSWpwGkp-4" value="" style="endArrow=block;dashed=1;endFill=0;endSize=12;html=1;rounded=0;exitX=0.5;exitY=0;exitDx=0;exitDy=0;entryX=0.496;entryY=1;entryDx=0;entryDy=0;entryPerimeter=0;" parent="WIyWlLk6GJQsqaUBKTNV-1" source="s623HBF7WjrTzKDzdVk1-49" target="s623HBF7WjrTzKDzdVk1-27" edge="1">
          <mxGeometry width="160" relative="1" as="geometry">
            <mxPoint x="349" y="340.37" as="sourcePoint" />
            <mxPoint x="249" y="280.37" as="targetPoint" />
          </mxGeometry>
        </mxCell>
        <mxCell id="mDiNn8X6zUOTqSWpwGkp-5" value="&lt;&lt;enumeration&gt;&gt;&#xa;GameOutcome" style="swimlane;fontStyle=0;align=center;verticalAlign=top;childLayout=stackLayout;horizontal=1;startSize=40;horizontalStack=0;resizeParent=1;resizeLast=0;collapsible=1;marginBottom=0;rounded=0;shadow=0;strokeWidth=1;" parent="WIyWlLk6GJQsqaUBKTNV-1" vertex="1">
          <mxGeometry x="605" y="810" width="160" height="152" as="geometry">
            <mxRectangle x="340" y="380" width="170" height="26" as="alternateBounds" />
          </mxGeometry>
        </mxCell>
        <mxCell id="mDiNn8X6zUOTqSWpwGkp-6" value="~draw" style="text;align=left;verticalAlign=top;spacingLeft=4;spacingRight=4;overflow=hidden;rotatable=0;points=[[0,0.5],[1,0.5]];portConstraint=eastwest;" parent="mDiNn8X6zUOTqSWpwGkp-5" vertex="1">
          <mxGeometry y="40" width="160" height="26" as="geometry" />
        </mxCell>
        <mxCell id="mDiNn8X6zUOTqSWpwGkp-7" value="~win" style="text;align=left;verticalAlign=top;spacingLeft=4;spacingRight=4;overflow=hidden;rotatable=0;points=[[0,0.5],[1,0.5]];portConstraint=eastwest;" parent="mDiNn8X6zUOTqSWpwGkp-5" vertex="1">
          <mxGeometry y="66" width="160" height="26" as="geometry" />
        </mxCell>
        <mxCell id="mDiNn8X6zUOTqSWpwGkp-8" value="~loss" style="text;align=left;verticalAlign=top;spacingLeft=4;spacingRight=4;overflow=hidden;rotatable=0;points=[[0,0.5],[1,0.5]];portConstraint=eastwest;" parent="mDiNn8X6zUOTqSWpwGkp-5" vertex="1">
          <mxGeometry y="92" width="160" height="26" as="geometry" />
        </mxCell>
        <mxCell id="mDiNn8X6zUOTqSWpwGkp-9" value="" style="line;html=1;strokeWidth=1;align=left;verticalAlign=middle;spacingTop=-1;spacingLeft=3;spacingRight=3;rotatable=0;labelPosition=right;points=[];portConstraint=eastwest;" parent="mDiNn8X6zUOTqSWpwGkp-5" vertex="1">
          <mxGeometry y="118" width="160" height="8" as="geometry" />
        </mxCell>
        <mxCell id="mDiNn8X6zUOTqSWpwGkp-10" value="~description: String" style="text;align=left;verticalAlign=top;spacingLeft=4;spacingRight=4;overflow=hidden;rotatable=0;points=[[0,0.5],[1,0.5]];portConstraint=eastwest;" parent="mDiNn8X6zUOTqSWpwGkp-5" vertex="1">
          <mxGeometry y="126" width="160" height="26" as="geometry" />
        </mxCell>
        <mxCell id="mDiNn8X6zUOTqSWpwGkp-11" value="" style="edgeStyle=elbowEdgeStyle;elbow=horizontal;endArrow=open;html=1;curved=0;rounded=0;endSize=8;startSize=8;endFill=0;exitX=0;exitY=0.5;exitDx=0;exitDy=0;entryX=-0.002;entryY=0.109;entryDx=0;entryDy=0;entryPerimeter=0;" parent="WIyWlLk6GJQsqaUBKTNV-1" source="s623HBF7WjrTzKDzdVk1-54" target="s623HBF7WjrTzKDzdVk1-30" edge="1">
          <mxGeometry width="50" height="50" relative="1" as="geometry">
            <mxPoint x="89" y="707" as="sourcePoint" />
            <mxPoint x="99" y="406" as="targetPoint" />
            <Array as="points">
              <mxPoint x="35" y="550" />
            </Array>
          </mxGeometry>
        </mxCell>
        <mxCell id="mDiNn8X6zUOTqSWpwGkp-15" value="" style="edgeStyle=elbowEdgeStyle;elbow=horizontal;endArrow=open;html=1;curved=0;rounded=0;endSize=8;startSize=8;endFill=0;entryX=-0.001;entryY=0.116;entryDx=0;entryDy=0;entryPerimeter=0;exitX=0.226;exitY=0.5;exitDx=0;exitDy=0;exitPerimeter=0;" parent="WIyWlLk6GJQsqaUBKTNV-1" source="s623HBF7WjrTzKDzdVk1-55" target="s623HBF7WjrTzKDzdVk1-49" edge="1">
          <mxGeometry width="50" height="50" relative="1" as="geometry">
            <mxPoint x="198.87" y="682.8399999999999" as="sourcePoint" />
            <mxPoint x="369.0000000000001" y="399.63199999999983" as="targetPoint" />
            <Array as="points">
              <mxPoint x="275" y="500" />
            </Array>
          </mxGeometry>
        </mxCell>
        <mxCell id="mDiNn8X6zUOTqSWpwGkp-16" value="" style="edgeStyle=elbowEdgeStyle;elbow=vertical;endArrow=open;html=1;curved=0;rounded=0;endSize=8;startSize=8;endFill=0;exitX=0;exitY=0.5;exitDx=0;exitDy=0;entryX=0;entryY=0.037;entryDx=0;entryDy=0;entryPerimeter=0;" parent="WIyWlLk6GJQsqaUBKTNV-1" source="s623HBF7WjrTzKDzdVk1-56" target="s623HBF7WjrTzKDzdVk1-1" edge="1">
          <mxGeometry width="50" height="50" relative="1" as="geometry">
            <mxPoint x="109" y="677" as="sourcePoint" />
            <mxPoint x="109" y="376" as="targetPoint" />
            <Array as="points">
              <mxPoint x="35" y="790" />
            </Array>
          </mxGeometry>
        </mxCell>
        <mxCell id="mDiNn8X6zUOTqSWpwGkp-22" value="" style="endArrow=open;shadow=0;strokeWidth=1;rounded=0;endFill=1;edgeStyle=elbowEdgeStyle;elbow=vertical;exitX=0.5;exitY=0;exitDx=0;exitDy=0;" parent="WIyWlLk6GJQsqaUBKTNV-1" source="s623HBF7WjrTzKDzdVk1-49" target="s623HBF7WjrTzKDzdVk1-41" edge="1">
          <mxGeometry x="0.5" y="41" relative="1" as="geometry">
            <mxPoint x="486" y="330.37" as="sourcePoint" />
            <mxPoint x="435" y="190" as="targetPoint" />
            <mxPoint x="-40" y="32" as="offset" />
            <Array as="points">
              <mxPoint x="410" y="100" />
            </Array>
          </mxGeometry>
        </mxCell>
        <mxCell id="SWItC1lxOOSz4s0kTF7j-0" value="" style="endArrow=open;shadow=0;strokeWidth=1;rounded=0;endFill=1;edgeStyle=elbowEdgeStyle;elbow=vertical;entryX=0;entryY=0.5;entryDx=0;entryDy=0;" parent="WIyWlLk6GJQsqaUBKTNV-1" edge="1">
          <mxGeometry x="0.5" y="41" relative="1" as="geometry">
            <mxPoint x="515" y="840.98" as="sourcePoint" />
            <mxPoint x="605" y="840.0000000000002" as="targetPoint" />
            <mxPoint x="-40" y="32" as="offset" />
            <Array as="points">
              <mxPoint x="565" y="840.98" />
            </Array>
          </mxGeometry>
        </mxCell>
        <mxCell id="SWItC1lxOOSz4s0kTF7j-2" value="" style="edgeStyle=elbowEdgeStyle;elbow=horizontal;endArrow=open;html=1;curved=0;rounded=0;endSize=8;startSize=8;endFill=0;entryX=-0.023;entryY=0.113;entryDx=0;entryDy=0;entryPerimeter=0;exitX=1;exitY=0.5;exitDx=0;exitDy=0;" parent="WIyWlLk6GJQsqaUBKTNV-1" source="s623HBF7WjrTzKDzdVk1-63" target="qmUEVyKpziymvP2P_vaz-72" edge="1">
          <mxGeometry width="50" height="50" relative="1" as="geometry">
            <mxPoint x="659" y="710.8399999999999" as="sourcePoint" />
            <mxPoint x="829.5" y="428" as="targetPoint" />
            <Array as="points">
              <mxPoint x="945" y="508" />
            </Array>
          </mxGeometry>
        </mxCell>
        <mxCell id="SWItC1lxOOSz4s0kTF7j-3" value="" style="edgeStyle=elbowEdgeStyle;elbow=horizontal;endArrow=open;html=1;curved=0;rounded=0;endSize=8;startSize=8;endFill=0;entryX=0;entryY=0.5;entryDx=0;entryDy=0;exitX=0.999;exitY=0.116;exitDx=0;exitDy=0;exitPerimeter=0;" parent="WIyWlLk6GJQsqaUBKTNV-1" source="s623HBF7WjrTzKDzdVk1-49" target="s623HBF7WjrTzKDzdVk1-61" edge="1">
          <mxGeometry width="50" height="50" relative="1" as="geometry">
            <mxPoint x="524.5" y="480.37" as="sourcePoint" />
            <mxPoint x="613.5" y="760.37" as="targetPoint" />
            <Array as="points" />
          </mxGeometry>
        </mxCell>
        <mxCell id="SWItC1lxOOSz4s0kTF7j-6" value="" style="edgeStyle=segmentEdgeStyle;endArrow=open;html=1;curved=0;rounded=0;endSize=8;startSize=8;exitX=1;exitY=0.06;exitDx=0;exitDy=0;exitPerimeter=0;endFill=0;" parent="WIyWlLk6GJQsqaUBKTNV-1" edge="1">
          <mxGeometry width="50" height="50" relative="1" as="geometry">
            <mxPoint x="515.0000000000002" y="561" as="sourcePoint" />
            <mxPoint x="605" y="826.5767441860465" as="targetPoint" />
            <Array as="points">
              <mxPoint x="515" y="562.6" />
              <mxPoint x="540" y="562.6" />
              <mxPoint x="540" y="826.6" />
            </Array>
          </mxGeometry>
        </mxCell>
        <mxCell id="SWItC1lxOOSz4s0kTF7j-1" value="" style="edgeStyle=elbowEdgeStyle;elbow=horizontal;endArrow=open;html=1;curved=0;rounded=0;endSize=8;startSize=8;endFill=0;exitX=0.004;exitY=0.128;exitDx=0;exitDy=0;exitPerimeter=0;entryX=0.001;entryY=0.04;entryDx=0;entryDy=0;entryPerimeter=0;" parent="WIyWlLk6GJQsqaUBKTNV-1" source="s623HBF7WjrTzKDzdVk1-62" target="mDiNn8X6zUOTqSWpwGkp-5" edge="1">
          <mxGeometry width="50" height="50" relative="1" as="geometry">
            <mxPoint x="580.5799999999999" y="853.3699999999999" as="sourcePoint" />
            <mxPoint x="715" y="1228" as="targetPoint" />
            <Array as="points">
              <mxPoint x="570" y="670" />
            </Array>
          </mxGeometry>
        </mxCell>
        <mxCell id="mcRJbc7Usewy4EhFzzjJ-44" value="&lt;&lt;enumeration&gt;&gt;&#xa;Game" style="swimlane;fontStyle=0;align=center;verticalAlign=top;childLayout=stackLayout;horizontal=1;startSize=40;horizontalStack=0;resizeParent=1;resizeLast=0;collapsible=1;marginBottom=0;rounded=0;shadow=0;strokeWidth=1;" parent="WIyWlLk6GJQsqaUBKTNV-1" vertex="1">
          <mxGeometry x="605" y="1000" width="160" height="100" as="geometry">
            <mxRectangle x="340" y="380" width="170" height="26" as="alternateBounds" />
          </mxGeometry>
        </mxCell>
        <mxCell id="mcRJbc7Usewy4EhFzzjJ-45" value="~mjp" style="text;align=left;verticalAlign=top;spacingLeft=4;spacingRight=4;overflow=hidden;rotatable=0;points=[[0,0.5],[1,0.5]];portConstraint=eastwest;" parent="mcRJbc7Usewy4EhFzzjJ-44" vertex="1">
          <mxGeometry y="40" width="160" height="26" as="geometry" />
        </mxCell>
        <mxCell id="mcRJbc7Usewy4EhFzzjJ-46" value="~rps" style="text;align=left;verticalAlign=top;spacingLeft=4;spacingRight=4;overflow=hidden;rotatable=0;points=[[0,0.5],[1,0.5]];portConstraint=eastwest;" parent="mcRJbc7Usewy4EhFzzjJ-44" vertex="1">
          <mxGeometry y="66" width="160" height="26" as="geometry" />
        </mxCell>
        <mxCell id="mcRJbc7Usewy4EhFzzjJ-47" value="" style="line;html=1;strokeWidth=1;align=left;verticalAlign=middle;spacingTop=-1;spacingLeft=3;spacingRight=3;rotatable=0;labelPosition=right;points=[];portConstraint=eastwest;" parent="mcRJbc7Usewy4EhFzzjJ-44" vertex="1">
          <mxGeometry y="92" width="160" height="8" as="geometry" />
        </mxCell>
        <mxCell id="mcRJbc7Usewy4EhFzzjJ-50" value="" style="edgeStyle=elbowEdgeStyle;elbow=horizontal;endArrow=open;html=1;curved=0;rounded=0;endSize=8;startSize=8;exitX=1.012;exitY=0.186;exitDx=0;exitDy=0;exitPerimeter=0;entryX=1.003;entryY=0.083;entryDx=0;entryDy=0;entryPerimeter=0;endFill=0;" parent="WIyWlLk6GJQsqaUBKTNV-1" source="s623HBF7WjrTzKDzdVk1-57" target="s623HBF7WjrTzKDzdVk1-41" edge="1">
          <mxGeometry width="50" height="50" relative="1" as="geometry">
            <mxPoint x="705" y="220" as="sourcePoint" />
            <mxPoint x="755" y="170" as="targetPoint" />
            <Array as="points">
              <mxPoint x="800" y="210" />
            </Array>
          </mxGeometry>
        </mxCell>
      </root>
    </mxGraphModel>
  </diagram>
</mxfile>
